<svg width="11" height="18" viewBox="0 0 11 18" fill="none" xmlns="http://www.w3.org/2000/svg">
<path d="M0.945913 17.459C1.0778 17.597 1.23471 17.7066 1.40759 17.7813C1.58047 17.856 1.76591 17.8945 1.95319 17.8945C2.14048 17.8945 2.32591 17.856 2.49879 17.7813C2.67167 17.7066 2.82858 17.597 2.96047 17.459L10.054 10.0977C10.187 9.96087 10.2925 9.79803 10.3645 9.61862C10.4366 9.43921 10.4736 9.24678 10.4736 9.05243C10.4736 8.85807 10.4366 8.66564 10.3645 8.48623C10.2925 8.30682 10.187 8.14399 10.054 8.00712L2.96047 0.645814C2.82859 0.507821 2.67168 0.39829 2.49879 0.323547C2.32591 0.248801 2.14048 0.210321 1.95319 0.210321C1.76591 0.210321 1.58048 0.248801 1.40759 0.323547C1.23471 0.39829 1.0778 0.507821 0.945915 0.645814C0.812942 0.78268 0.707399 0.945512 0.635373 1.12492C0.563347 1.30433 0.526265 1.49676 0.526265 1.69112C0.526265 1.88547 0.563347 2.07791 0.635373 2.25732C0.707399 2.43672 0.812942 2.59956 0.945915 2.73642L7.04633 9.05243L0.945914 15.3684C0.812941 15.5053 0.707398 15.6681 0.635371 15.8475C0.563346 16.0269 0.526263 16.2194 0.526263 16.4137C0.526263 16.6081 0.563346 16.8005 0.635371 16.9799C0.707398 17.1593 0.812941 17.3222 0.945913 17.459Z" fill="white"/>
</svg>
