<svg width="103" height="27" viewBox="0 0 103 27" fill="none" xmlns="http://www.w3.org/2000/svg">
<mask id="mask0_45_6360" style="mask-type:luminance" maskUnits="userSpaceOnUse" x="0" y="0" width="19" height="19">
<path fill-rule="evenodd" clip-rule="evenodd" d="M0 0H18.629V18.7385H0V0Z" fill="white"/>
</mask>
<g mask="url(#mask0_45_6360)">
<path fill-rule="evenodd" clip-rule="evenodd" d="M18.6288 17.03V1.70841C18.6288 1.51188 18.5951 1.32351 18.5339 1.14769C18.3254 0.582576 17.7973 0.124831 17.1993 0.0218547L17.1893 0.019971C17.1868 0.019343 17.1843 0.019343 17.1818 0.0187151C17.0994 0.00678491 17.0157 -0.00012207 16.9302 -0.00012207H1.69808C0.764209 -0.00012207 -0.000488281 0.769064 -0.000488281 1.70841V17.03C-0.000488281 17.2259 0.0332208 17.4142 0.0950208 17.5907C0.302894 18.1558 0.831003 18.6136 1.42903 18.7165C1.43277 18.7172 1.43589 18.7178 1.43901 18.7178C1.44151 18.7184 1.44401 18.7184 1.44713 18.719C1.52891 18.7316 1.61318 18.7385 1.69808 18.7385H8.19894L2.00146 10.7126H5.29808L11.4962 18.7385H13.4788L7.28067 10.7126H11.1553C11.8351 10.7126 12.3302 10.5493 12.6704 10.2109C13.0075 9.87434 13.171 9.38144 13.171 8.70769C13.171 7.72627 12.8808 6.72288 10.7234 6.72288H4.19817L2.16251 4.0863H11.2421C12.6748 4.0863 13.839 4.51265 14.7017 5.35467C15.5687 6.20234 16.0082 7.34451 16.0082 8.75102C16.0082 10.0338 15.6131 11.0956 14.8346 11.9044C14.2728 12.4883 13.5293 12.9002 12.6155 13.1363L16.7754 18.7385H16.9302C17.8641 18.7385 18.6288 17.9693 18.6288 17.03Z" fill="#F17D21"/>
</g>
<mask id="mask1_45_6360" style="mask-type:luminance" maskUnits="userSpaceOnUse" x="0" y="0" width="103" height="27">
<path fill-rule="evenodd" clip-rule="evenodd" d="M0 27H102.84V0H0V27Z" fill="white"/>
</mask>
<g mask="url(#mask1_45_6360)">
<path fill-rule="evenodd" clip-rule="evenodd" d="M34.4077 18.738H37.0289V3.51501H34.4077V18.738Z" fill="white"/>
<path fill-rule="evenodd" clip-rule="evenodd" d="M38.6157 8.37413C38.6157 7.49569 38.7992 6.73278 39.1682 6.08667C39.5365 5.44055 40.0284 4.90243 40.6451 4.47106C41.2619 4.04157 41.9685 3.72197 42.7651 3.51539C43.5616 3.3088 44.3881 3.2052 45.2446 3.2052C45.8782 3.2052 46.5168 3.26548 47.1591 3.38604C47.8014 3.5066 48.4138 3.70878 48.9962 3.9926C49.5787 4.27767 50.1099 4.65692 50.5893 5.13036C51.0687 5.60443 51.4714 6.19467 51.7966 6.90043L49.4332 7.98608C49.2615 7.5905 49.0256 7.25457 48.7266 6.97829C48.4263 6.70327 48.088 6.47848 47.7116 6.30643C47.3345 6.13439 46.9319 6.0088 46.5036 5.93157C46.0754 5.85371 45.6559 5.81541 45.2446 5.81541C44.6965 5.81541 44.1783 5.87129 43.6902 5.98306C43.202 6.09546 42.7782 6.26374 42.4186 6.48727C42.059 6.71206 41.7713 6.97829 41.5578 7.28848C41.343 7.59929 41.2363 7.96097 41.2363 8.37413V13.7503C41.2363 14.2325 41.3649 14.6375 41.6221 14.9646C41.8786 15.2924 42.2039 15.5593 42.5978 15.7659C42.9923 15.9731 43.4243 16.1194 43.8956 16.2054C44.3669 16.2914 44.8163 16.3347 45.2446 16.3347C46.0673 16.3347 46.872 16.1752 47.6597 15.8563C48.4475 15.5379 49.0643 14.9904 49.51 14.2155L51.8228 15.2748C51.4633 15.9643 51.0388 16.5457 50.5506 17.0198C50.0625 17.4932 49.5312 17.8725 48.9575 18.1569C48.3832 18.4407 47.7796 18.6435 47.146 18.7641C46.5124 18.884 45.8782 18.9449 45.2446 18.9449C44.32 18.9449 43.4542 18.8325 42.6496 18.609C41.8443 18.3855 41.142 18.0533 40.5421 17.6138C39.9429 17.1749 39.4716 16.6311 39.1295 15.9856C38.7861 15.3395 38.6157 14.5942 38.6157 13.7503V8.37413Z" fill="white"/>
<path fill-rule="evenodd" clip-rule="evenodd" d="M55.4707 13.6727C55.4707 14.1035 55.5774 14.4827 55.7922 14.8099C56.0056 15.137 56.2972 15.4127 56.6661 15.6368C57.0338 15.8604 57.4576 16.0337 57.9377 16.1536C58.4171 16.2748 58.9221 16.3344 59.4533 16.3344C59.9839 16.3344 60.494 16.2748 60.9821 16.1536C61.4703 16.0337 61.8985 15.8604 62.2668 15.6368C62.6351 15.4127 62.931 15.137 63.1532 14.8099C63.3761 14.4827 63.4878 14.1035 63.4878 13.6727V8.42595C63.4878 8.01216 63.3761 7.64609 63.1532 7.32774C62.931 7.00877 62.6351 6.73751 62.2668 6.51335C61.8985 6.28919 61.4703 6.12154 60.9821 6.00914C60.494 5.89737 59.9839 5.84086 59.4533 5.84086C58.9221 5.84086 58.4171 5.89737 57.9377 6.00914C57.4576 6.12154 57.0338 6.28919 56.6661 6.51335C56.2972 6.73751 56.0056 7.00877 55.7922 7.32774C55.5774 7.64609 55.4707 8.01216 55.4707 8.42595V13.6727ZM52.8501 13.6727V8.42595C52.8501 7.58205 53.0218 6.83609 53.3645 6.18998C53.7078 5.54386 54.1754 5.00135 54.7678 4.56181C55.3602 4.12291 56.0593 3.79137 56.8658 3.56658C57.6724 3.34305 58.5394 3.23065 59.4664 3.23065C60.3928 3.23065 61.2643 3.34305 62.0789 3.56658C62.8942 3.79137 63.5977 4.12291 64.1901 4.56181C64.7825 5.00135 65.25 5.54386 65.5934 6.18998C65.9367 6.83609 66.1084 7.58205 66.1084 8.42595V13.6727C66.1084 14.5173 65.9367 15.2664 65.5934 15.9213C65.25 16.5762 64.7825 17.1275 64.1901 17.5752C63.5977 18.0235 62.8942 18.3638 62.0789 18.5962C61.2643 18.8291 60.3928 18.9447 59.4664 18.9447C58.5394 18.9447 57.6724 18.8291 56.8658 18.5962C56.0593 18.3638 55.3602 18.0235 54.7678 17.5752C54.1754 17.1275 53.7078 16.5762 53.3645 15.9213C53.0218 15.2664 52.8501 14.5173 52.8501 13.6727Z" fill="white"/>
<path fill-rule="evenodd" clip-rule="evenodd" d="M100.219 13.6206V12.4314H94.636C94.141 12.4314 93.7396 12.4923 93.4319 12.6135C93.1247 12.734 92.8769 12.8753 92.689 13.0392C92.5011 13.2037 92.3732 13.3751 92.3051 13.556C92.2364 13.7374 92.2027 13.8881 92.2027 14.0087C92.2027 14.4218 92.3095 14.7753 92.5223 15.0686C92.7365 15.3612 93.0267 15.6023 93.3932 15.7919C93.7602 15.9816 94.1878 16.1191 94.6741 16.2051C95.161 16.2917 95.6773 16.3344 96.2241 16.3344C97.163 16.3344 97.8971 16.2271 98.4264 16.0117C98.9558 15.7963 99.3528 15.5427 99.6175 15.2494C99.8822 14.9568 100.049 14.6592 100.117 14.3572C100.186 14.0558 100.219 13.8109 100.219 13.6206ZM96.2628 3.23065C97.153 3.23065 97.9963 3.33426 98.7929 3.54084C99.59 3.74742 100.286 4.062 100.882 4.48458C101.478 4.90654 101.953 5.43712 102.309 6.07381C102.663 6.71177 102.84 7.46965 102.84 8.34872V13.6206C102.84 14.5512 102.681 15.3486 102.364 16.0117C102.046 16.6748 101.596 17.2261 101.013 17.6656C100.428 18.1051 99.7292 18.4279 98.9146 18.6345C98.0987 18.8417 97.2023 18.9447 96.2241 18.9447C95.2971 18.9447 94.43 18.8505 93.6235 18.6615C92.817 18.4731 92.1135 18.1761 91.5123 17.7723C90.9118 17.3686 90.4399 16.8575 90.0965 16.239C89.7532 15.6205 89.5815 14.8815 89.5815 14.0225C89.5815 13.3701 89.7058 12.7855 89.9542 12.27C90.2027 11.7545 90.5454 11.3162 90.9823 10.9558C91.4187 10.5954 91.9462 10.316 92.5623 10.1182C93.179 9.92037 93.8638 9.82179 94.6179 9.82179H100.219V8.36505C100.219 7.94937 100.116 7.58456 99.9109 7.27249C99.7055 6.95979 99.4227 6.70047 99.0632 6.49137C98.7036 6.28291 98.2835 6.12342 97.8041 6.0104C97.324 5.89737 96.8103 5.84086 96.2628 5.84086C94.5493 5.84086 93.3158 6.39279 92.5623 7.4954L90.3013 6.15105C90.9006 5.15268 91.7058 4.41614 92.7165 3.94144C93.7271 3.468 94.9088 3.23065 96.2628 3.23065Z" fill="white"/>
<path fill-rule="evenodd" clip-rule="evenodd" d="M88.3956 12.6254V8.42595C88.3956 7.58205 88.2495 6.83233 87.9586 6.17679C87.6671 5.52251 87.2607 4.97937 86.7382 4.54926C86.2151 4.11851 85.5952 3.79137 84.8755 3.56658C84.1557 3.34305 83.376 3.23065 82.537 3.23065C81.5776 3.23065 80.6912 3.34305 79.8778 3.56658C79.0638 3.79137 78.4083 4.17 77.912 4.70435C77.4151 4.17 76.7772 3.79137 75.9975 3.56658C75.2178 3.34305 74.3314 3.23065 73.3382 3.23065C72.5329 3.23065 71.7751 3.33426 71.0641 3.54084C70.3537 3.74742 69.7326 4.0664 69.2014 4.49777C68.6701 4.92788 68.2463 5.46663 67.9298 6.11275C67.6127 6.75886 67.4541 7.52993 67.4541 8.42595V18.7381H70.0753V8.42595C70.0753 7.99521 70.1652 7.61595 70.3443 7.28881C70.5247 6.96105 70.7601 6.69042 71.0516 6.47442C71.3425 6.25905 71.6846 6.09956 72.0791 5.99595C72.473 5.89298 72.8931 5.84086 73.3382 5.84086C74.3145 5.84086 75.1067 6.06565 75.7153 6.51335C76.3227 6.96105 76.6273 7.599 76.6273 8.42595V18.7381H79.2479V8.42595C79.2479 7.99521 79.3378 7.61595 79.517 7.28881C79.6955 6.96105 79.9346 6.69042 80.233 6.47442C80.532 6.25905 80.8816 6.09956 81.2829 5.99595C81.6837 5.89298 82.1057 5.84086 82.5495 5.84086C83.4884 5.84086 84.26 6.06565 84.8661 6.51335C85.471 6.96105 85.7744 7.599 85.7744 8.42595V15.2613H85.775V16.8361C85.775 18.0009 86.7132 18.9447 87.8712 18.9447H88.3956V12.6254Z" fill="white"/>
<path fill-rule="evenodd" clip-rule="evenodd" d="M30.063 3.60602C28.0754 3.60602 26.5217 4.04869 25.3999 4.9353C24.2775 5.82127 23.7163 7.05825 23.7163 8.64497V15.3661V18.9452H24.2407C25.3986 18.9452 26.3375 18.0008 26.3375 16.836V12.6253V8.64497C26.3375 7.86888 26.6752 7.26107 27.3525 6.82216C28.0286 6.38325 28.9325 6.16348 30.063 6.16348H33.5319V3.60602H30.063Z" fill="white"/>
<path fill-rule="evenodd" clip-rule="evenodd" d="M34.7076 -0.000183105H36.7033C36.883 -0.000183105 37.0285 0.146119 37.0285 0.326956V1.71463C37.0285 1.89547 36.883 2.04177 36.7033 2.04177H34.7076C34.5278 2.04177 34.3823 1.89547 34.3823 1.71463V0.326956C34.3823 0.146119 34.5278 -0.000183105 34.7076 -0.000183105Z" fill="#F17D21"/>
<path fill-rule="evenodd" clip-rule="evenodd" d="M38.1514 22.7541H36.7531L36.0177 26.9498H35.6207L36.356 22.7541H34.9702L35.0401 22.3547H38.2213L38.1514 22.7541Z" fill="white"/>
<path fill-rule="evenodd" clip-rule="evenodd" d="M43.3941 22.3549L42.5888 26.9493H42.1918L42.577 24.7503H40.2467L39.8609 26.9493H39.4639L40.2691 22.3549H40.6662L40.3166 24.3516H42.6475L42.9971 22.3549H43.3941Z" fill="white"/>
<path fill-rule="evenodd" clip-rule="evenodd" d="M46.3437 22.3488L45.5372 26.9494H45.1401L45.9467 22.3488H46.3437Z" fill="white"/>
<path fill-rule="evenodd" clip-rule="evenodd" d="M48.0947 26.9495L48.9006 22.3551H49.3289L50.9987 26.2331L51.6785 22.3551H52.0749L51.2696 26.9495H50.8345L49.1715 23.0709L48.4917 26.9495H48.0947Z" fill="white"/>
<path fill-rule="evenodd" clip-rule="evenodd" d="M54.6267 22.3549H55.0237L54.6517 24.4778L57.329 22.3549H57.9215L55.0243 24.6486L57.1287 26.9493H56.5494L54.5924 24.8137L54.2184 26.9493H53.8208L54.6267 22.3549Z" fill="white"/>
<path fill-rule="evenodd" clip-rule="evenodd" d="M62.7365 26.5503H64.3408C64.3957 26.5503 64.4681 26.5447 64.558 26.5347C64.6485 26.524 64.7403 26.4876 64.8333 26.4267C64.9257 26.3651 65.0137 26.2672 65.0961 26.1322C65.1791 25.9965 65.2422 25.805 65.2859 25.5551C65.3339 25.2807 65.3034 25.0779 65.1935 24.9467C65.0836 24.8154 64.9045 24.7508 64.656 24.7508H63.0517L62.7365 26.5503ZM63.1216 24.3514H64.7328C64.9475 24.3514 65.1217 24.2786 65.2547 24.1323C65.3876 23.9866 65.475 23.7932 65.5175 23.5527C65.563 23.2909 65.5474 23.0918 65.47 22.9568C65.3926 22.8218 65.2378 22.754 65.0068 22.754H63.4019L63.1216 24.3514ZM62.2695 26.9497L63.0748 22.3547H65.078C65.4182 22.3547 65.6592 22.4614 65.8002 22.6749C65.9413 22.8884 65.9794 23.181 65.9139 23.5527C65.8764 23.7681 65.809 23.9558 65.7116 24.1166C65.6136 24.2773 65.4925 24.413 65.3477 24.5228C65.3995 24.5605 65.4513 24.6063 65.5025 24.6616C65.5537 24.7162 65.5974 24.7853 65.6329 24.8676C65.6692 24.9498 65.6929 25.0471 65.7047 25.1589C65.7166 25.2713 65.7091 25.4032 65.6829 25.5551C65.6049 25.9984 65.4494 26.3419 65.216 26.5849C64.9819 26.8279 64.6679 26.9497 64.2727 26.9497H62.2695Z" fill="white"/>
<path fill-rule="evenodd" clip-rule="evenodd" d="M71.346 22.7541H68.7442L68.4645 24.3515H70.3354L70.2655 24.7508H68.394L68.0788 26.5504H70.6806L70.6107 26.9498H67.6118L68.4177 22.3547H71.416L71.346 22.7541Z" fill="white"/>
<path fill-rule="evenodd" clip-rule="evenodd" d="M74.0445 26.9495H73.6475L74.0308 24.7631L72.9658 22.3551H73.4259L74.3067 24.3387L75.9204 22.3551H76.3804L74.4278 24.7631L74.0445 26.9495Z" fill="white"/>
<path fill-rule="evenodd" clip-rule="evenodd" d="M80.0446 25.82L80.4554 23.4779C80.4648 23.4233 80.4698 23.3517 80.4704 23.2657C80.471 23.1784 80.4417 23.0937 80.383 23.0114C80.3237 22.9292 80.2207 22.8569 80.074 22.796C79.9273 22.7345 79.7107 22.7037 79.4254 22.7037C79.1358 22.7037 78.9067 22.7345 78.7381 22.796C78.5702 22.8569 78.4416 22.9298 78.3536 23.0145C78.2649 23.0993 78.2069 23.186 78.1788 23.2745C78.1501 23.3637 78.132 23.4334 78.1232 23.4842L77.715 25.8138C77.7056 25.8646 77.7 25.9343 77.6969 26.0228C77.6938 26.112 77.7218 26.1993 77.7805 26.2834C77.8392 26.3682 77.9416 26.4417 78.0883 26.5057C78.2343 26.5691 78.4528 26.6005 78.7425 26.6005C79.0278 26.6005 79.255 26.5698 79.4229 26.5088C79.5914 26.4473 79.7194 26.3745 79.8081 26.2897C79.8961 26.2049 79.9554 26.1189 79.986 26.0298C80.0159 25.9406 80.0353 25.8709 80.0446 25.82ZM80.8493 23.4955L80.446 25.7962C80.3755 26.1974 80.1889 26.4982 79.8873 26.6985C79.5852 26.9 79.1807 26.9999 78.6719 26.9999C78.1638 26.9999 77.7943 26.9 77.5627 26.6985C77.3311 26.4982 77.2506 26.1974 77.3211 25.7962L77.7243 23.4955C77.7924 23.1075 77.9772 22.8111 78.2799 22.6083C78.5821 22.4061 78.9872 22.3044 79.4953 22.3044C80.0035 22.3044 80.3736 22.4042 80.6052 22.602C80.8374 22.8004 80.9186 23.0987 80.8493 23.4955Z" fill="white"/>
<path fill-rule="evenodd" clip-rule="evenodd" d="M82.48 26.9495L83.2853 22.3551H83.7135L85.3833 26.2331L86.0638 22.3551H86.4602L85.6549 26.9495H85.2192L83.5568 23.0709L82.877 26.9495H82.48Z" fill="white"/>
<path fill-rule="evenodd" clip-rule="evenodd" d="M90.1863 22.7541H89.024L88.3585 26.5504H89.5209C89.652 26.5504 89.7849 26.5391 89.9216 26.5184C90.0577 26.4977 90.1838 26.4581 90.2993 26.4016C90.4142 26.3445 90.514 26.266 90.5989 26.1668C90.6838 26.0675 90.74 25.9376 90.7687 25.7768L91.1683 23.4956C91.192 23.3606 91.1851 23.2451 91.147 23.1503C91.109 23.0549 91.0453 22.9776 90.9566 22.9192C90.868 22.8602 90.7588 22.8175 90.6283 22.7924C90.4978 22.7673 90.3505 22.7541 90.1863 22.7541ZM88.6975 22.3547H90.2594C90.73 22.3547 91.0815 22.4514 91.3149 22.6429C91.5478 22.8357 91.6308 23.1195 91.5653 23.4956L91.1651 25.7768C91.0977 26.1617 90.9123 26.4531 90.6089 26.6515C90.3049 26.8499 89.9204 26.9498 89.4541 26.9498H87.8916L88.6975 22.3547Z" fill="white"/>
</g>
</svg>
