<svg width="36" height="37" viewBox="0 0 36 37" fill="none" xmlns="http://www.w3.org/2000/svg">
<mask id="mask0_45_6442" style="mask-type:luminance" maskUnits="userSpaceOnUse" x="0" y="12" width="25" height="25">
<path fill-rule="evenodd" clip-rule="evenodd" d="M0.28125 12.4062H24.5192V36.947H0.28125V12.4062Z" fill="white"/>
</mask>
<g mask="url(#mask0_45_6442)">
<path fill-rule="evenodd" clip-rule="evenodd" d="M2.36478 14.4908C2.48368 16.9906 3.02824 19.3794 3.92588 21.5843L7.51853 17.863L6.86743 14.4908H2.36478ZM15.4072 33.2377C17.5978 34.1575 19.9742 34.7162 22.4602 34.8376V30.5753L18.8357 29.495L15.4072 33.2377ZM24.5193 36.9472H23.4899C10.6927 36.9472 0.28125 26.4053 0.28125 13.4485V12.4062H8.56287L9.74669 18.5378L4.86677 23.5917C6.83037 27.2719 9.82647 30.308 13.4603 32.2982L18.194 27.1307L24.5193 29.0161V36.9472Z" fill="black"/>
</g>
<mask id="mask1_45_6442" style="mask-type:luminance" maskUnits="userSpaceOnUse" x="14" y="0" width="21" height="21">
<path fill-rule="evenodd" clip-rule="evenodd" d="M15.9207 0.521362C15.195 0.521362 14.6025 1.12066 14.6025 1.85545V19.813C14.6025 20.3398 15.195 20.6415 15.6119 20.3237L20.8876 16.2901H33.4825C34.2128 16.2901 34.7996 15.6966 34.7996 14.9566V1.85545C34.7996 1.12066 34.2128 0.521362 33.4825 0.521362H15.9207ZM22.8535 4.23122C22.8535 3.54906 23.4043 2.99146 24.0842 2.99146C24.7584 2.99146 25.3087 3.54906 25.3087 4.23122C25.3087 4.9191 24.7584 5.47671 24.0842 5.47671C23.4043 5.47671 22.8535 4.9191 22.8535 4.23122ZM22.5187 6.85774H25.6898V11.8293H27.4959V13.8257H21.9067V11.8293H23.7185V8.85418H22.5187V6.85774Z" fill="white"/>
</mask>
<g mask="url(#mask1_45_6442)">
<path fill-rule="evenodd" clip-rule="evenodd" d="M15.9207 0.521362C15.195 0.521362 14.6025 1.12066 14.6025 1.85545V19.813C14.6025 20.3398 15.195 20.6415 15.6119 20.3237L20.8876 16.2901H33.4825C34.2128 16.2901 34.7996 15.6966 34.7996 14.9566V1.85545C34.7996 1.12066 34.2128 0.521362 33.4825 0.521362H15.9207ZM22.8535 4.23122C22.8535 3.54906 23.4043 2.99146 24.0842 2.99146C24.7584 2.99146 25.3087 3.54906 25.3087 4.23122C25.3087 4.9191 24.7584 5.47671 24.0842 5.47671C23.4043 5.47671 22.8535 4.9191 22.8535 4.23122ZM22.5187 6.85774H25.6898V11.8293H27.4959V13.8257H21.9067V11.8293H23.7185V8.85418H22.5187V6.85774Z" fill="url(#paint0_linear_45_6442)"/>
</g>
<defs>
<linearGradient id="paint0_linear_45_6442" x1="14.6028" y1="20.4536" x2="34.7999" y2="20.4536" gradientUnits="userSpaceOnUse">
<stop stop-color="#FF7200"/>
<stop offset="1" stop-color="#FB9500"/>
</linearGradient>
</defs>
</svg>
